<?xml version="1.0" encoding="utf-8"?>
<!-- Generator: Adobe Illustrator 16.0.0, SVG Export Plug-In . SVG Version: 6.00 Build 0)  -->
<!DOCTYPE svg PUBLIC "-//W3C//DTD SVG 1.1//EN" "http://www.w3.org/Graphics/SVG/1.1/DTD/svg11.dtd">
<svg version="1.1" id="outlined" xmlns="http://www.w3.org/2000/svg" xmlns:xlink="http://www.w3.org/1999/xlink" x="0px" y="0px"
	 width="238.481px" height="245.242px" viewBox="0 0 238.481 245.242" enable-background="new 0 0 238.481 245.242"
	 xml:space="preserve">
<path fill="#C3002F" d="M0,0v245.242h152.311c47.592,0,86.171-38.58,86.171-86.172V0H0z"/>
<g>
	<path fill="#FFFFFF" d="M30.76,87.931v12.941c0,4.347,1.811,6.355,4.544,6.355c2.931,0,4.676-2.008,4.676-6.355V87.931h4.05v12.678
		c0,6.849-3.523,9.878-8.858,9.878c-5.137,0-8.462-2.865-8.462-9.846v-12.71H30.76z"/>
	<path fill="#FFFFFF" d="M48.673,98.863c0-1.844-0.033-3.392-0.132-4.774h3.556l0.198,2.404h0.099
		c0.691-1.251,2.437-2.766,5.104-2.766c2.799,0,5.697,1.811,5.697,6.882v9.516h-4.05v-9.055c0-2.305-0.856-4.05-3.062-4.05
		c-1.613,0-2.733,1.152-3.161,2.371c-0.131,0.362-0.165,0.856-0.165,1.317v9.417h-4.083V98.863z"/>
	<path fill="#FFFFFF" d="M71.985,89.61c0,1.219-0.889,2.173-2.305,2.173c-1.35,0-2.239-0.955-2.239-2.173
		c0-1.251,0.922-2.206,2.272-2.206C71.096,87.404,71.953,88.359,71.985,89.61z M67.672,110.125V94.088h4.083v16.036H67.672z"/>
	<path fill="#FFFFFF" d="M78.835,94.088l2.602,8.133c0.461,1.416,0.79,2.7,1.086,4.017h0.099c0.296-1.317,0.659-2.568,1.087-4.017
		l2.535-8.133h4.281L84.4,110.125h-3.984l-5.96-16.036H78.835z"/>
	<path fill="#FFFFFF" d="M95.595,103.243c0.099,2.897,2.371,4.149,4.939,4.149c1.876,0,3.227-0.264,4.445-0.725l0.592,2.799
		c-1.383,0.56-3.292,0.988-5.598,0.988c-5.203,0-8.265-3.194-8.265-8.1c0-4.445,2.7-8.627,7.837-8.627
		c5.203,0,6.915,4.281,6.915,7.804c0,0.757-0.066,1.35-0.131,1.712H95.595z M102.642,100.411c0.033-1.482-0.626-3.918-3.326-3.918
		c-2.502,0-3.556,2.272-3.721,3.918H102.642z"/>
	<path fill="#FFFFFF" d="M109.886,99.258c0-2.173-0.033-3.721-0.132-5.17h3.523l0.132,3.062h0.131
		c0.791-2.272,2.667-3.425,4.38-3.425c0.395,0,0.625,0.033,0.955,0.099v3.82c-0.329-0.066-0.691-0.132-1.185-0.132
		c-1.943,0-3.26,1.251-3.623,3.062c-0.065,0.362-0.131,0.791-0.131,1.251v8.298h-4.05V99.258z"/>
	<path fill="#FFFFFF" d="M121.575,106.404c0.922,0.56,2.667,1.152,4.116,1.152c1.778,0,2.569-0.725,2.569-1.778
		c0-1.086-0.659-1.646-2.635-2.338c-3.128-1.086-4.445-2.799-4.413-4.676c0-2.832,2.338-5.038,6.059-5.038
		c1.778,0,3.326,0.461,4.248,0.955l-0.791,2.865c-0.691-0.395-1.976-0.922-3.392-0.922c-1.448,0-2.238,0.691-2.238,1.679
		c0,1.021,0.757,1.515,2.799,2.239c2.897,1.054,4.247,2.535,4.28,4.906c0,2.897-2.272,5.005-6.52,5.005
		c-1.943,0-3.688-0.461-4.874-1.12L121.575,106.404z"/>
	<path fill="#FFFFFF" d="M139.981,89.61c0,1.219-0.89,2.173-2.306,2.173c-1.35,0-2.239-0.955-2.239-2.173
		c0-1.251,0.923-2.206,2.272-2.206C139.092,87.404,139.948,88.359,139.981,89.61z M135.667,110.125V94.088h4.084v16.036H135.667z"/>
	<path fill="#FFFFFF" d="M148.905,89.511v4.577h3.853v3.029h-3.853v7.08c0,1.943,0.526,2.964,2.074,2.964
		c0.691,0,1.219-0.099,1.581-0.198l0.065,3.095c-0.593,0.23-1.646,0.395-2.931,0.395c-1.481,0-2.733-0.494-3.49-1.317
		c-0.856-0.922-1.251-2.371-1.251-4.479v-7.541h-2.306v-3.029h2.306v-3.622L148.905,89.511z"/>
	<path fill="#FFFFFF" d="M158.75,94.088l2.897,8.594c0.329,0.988,0.658,2.206,0.889,3.128h0.1c0.263-0.922,0.56-2.107,0.855-3.161
		l2.503-8.562h4.347l-4.018,10.932c-2.206,5.993-3.688,8.66-5.598,10.307c-1.581,1.416-3.228,1.943-4.248,2.075l-0.922-3.425
		c0.691-0.165,1.548-0.527,2.371-1.12c0.757-0.494,1.646-1.449,2.206-2.535c0.165-0.296,0.264-0.527,0.264-0.725
		c0-0.165-0.033-0.395-0.23-0.79l-5.861-14.719H158.75z"/>
	<path fill="#FFFFFF" d="M195.069,101.958c0,5.895-4.148,8.529-8.231,8.529c-4.545,0-8.035-3.128-8.035-8.265
		c0-5.269,3.458-8.496,8.298-8.496C191.876,93.726,195.069,97.085,195.069,101.958z M182.984,102.123
		c0,3.095,1.515,5.433,3.984,5.433c2.306,0,3.919-2.272,3.919-5.499c0-2.502-1.119-5.368-3.886-5.368
		C184.138,96.689,182.984,99.456,182.984,102.123z"/>
	<path fill="#FFFFFF" d="M199.021,110.125V97.118h-2.174v-3.029h2.174v-0.691c0-2.075,0.56-4.149,1.942-5.466
		c1.186-1.12,2.799-1.547,4.182-1.547c1.087,0,1.943,0.165,2.602,0.395l-0.296,3.128c-0.429-0.165-0.988-0.296-1.713-0.296
		c-2.009,0-2.7,1.68-2.7,3.655v0.823h3.523v3.029h-3.49v13.007H199.021z"/>
	<path fill="#FFFFFF" d="M26.645,140.013c1.317,0.756,3.293,1.416,5.367,1.416c2.602,0,4.05-1.219,4.05-3.031
		c0-1.678-1.12-2.667-3.952-3.687c-3.655-1.317-5.993-3.26-5.993-6.454c0-3.622,3.029-6.388,7.837-6.388
		c2.404,0,4.182,0.527,5.334,1.12l-0.988,3.26c-0.791-0.428-2.338-1.054-4.413-1.054c-2.568,0-3.688,1.383-3.688,2.667
		c0,1.712,1.284,2.502,4.248,3.655c3.853,1.449,5.73,3.392,5.73,6.586c0,3.557-2.7,6.65-8.43,6.65c-2.338,0-4.775-0.658-5.993-1.383
		L26.645,140.013z"/>
	<path fill="#FFFFFF" d="M59.275,136.259c0,5.893-4.149,8.528-8.232,8.528c-4.544,0-8.035-3.127-8.035-8.265
		c0-5.269,3.458-8.496,8.298-8.496C56.082,128.026,59.275,131.385,59.275,136.259z M47.191,136.423c0,3.096,1.515,5.434,3.984,5.434
		c2.305,0,3.918-2.273,3.918-5.5c0-2.502-1.12-5.367-3.886-5.367C48.343,130.99,47.191,133.756,47.191,136.423z"/>
	<path fill="#FFFFFF" d="M77.123,139.617c0,1.91,0.066,3.49,0.131,4.809h-3.556l-0.198-2.438h-0.065
		c-0.692,1.152-2.272,2.799-5.137,2.799c-2.931,0-5.598-1.744-5.598-6.98v-9.417h4.05v8.726c0,2.668,0.856,4.379,2.997,4.379
		c1.613,0,2.667-1.152,3.095-2.172c0.132-0.363,0.23-0.791,0.23-1.252v-9.681h4.05V139.617z"/>
	<path fill="#FFFFFF" d="M86.309,123.812v4.577h3.853v3.029h-3.853v7.08c0,1.943,0.527,2.963,2.074,2.963
		c0.691,0,1.218-0.098,1.581-0.197l0.066,3.096c-0.593,0.23-1.646,0.395-2.931,0.395c-1.482,0-2.733-0.494-3.49-1.316
		c-0.856-0.922-1.251-2.371-1.251-4.479v-7.541h-2.305v-3.029h2.305v-3.622L86.309,123.812z"/>
	<path fill="#FFFFFF" d="M93.388,121.045h4.083v9.549h0.066c0.494-0.757,1.152-1.383,2.009-1.844
		c0.79-0.461,1.745-0.725,2.766-0.725c2.733,0,5.598,1.811,5.598,6.948v9.451h-4.05v-8.99c0-2.338-0.856-4.083-3.095-4.083
		c-1.581,0-2.7,1.054-3.128,2.272c-0.131,0.33-0.165,0.758-0.165,1.219v9.583h-4.083V121.045z"/>
	<path fill="#FFFFFF" d="M121.936,144.425l-5.433-22.194h4.313l2.107,10.076c0.56,2.7,1.086,5.532,1.449,7.737h0.066
		c0.362-2.338,0.988-4.971,1.613-7.77l2.404-10.043h4.247l2.207,10.208c0.56,2.634,1.021,5.104,1.35,7.508h0.065
		c0.396-2.437,0.923-4.973,1.516-7.672l2.305-10.043h4.116l-5.96,22.194h-4.347l-2.306-10.439c-0.56-2.535-0.954-4.643-1.218-7.046
		h-0.066c-0.395,2.371-0.823,4.511-1.481,7.046l-2.568,10.439H121.936z"/>
	<path fill="#FFFFFF" d="M154.731,144.425l-0.263-1.779h-0.1c-0.987,1.252-2.667,2.141-4.741,2.141
		c-3.227,0-5.038-2.338-5.038-4.773c0-4.051,3.589-6.093,9.517-6.06v-0.264c0-1.054-0.429-2.799-3.26-2.799
		c-1.581,0-3.228,0.494-4.314,1.186l-0.79-2.634c1.186-0.725,3.26-1.416,5.796-1.416c5.137,0,6.618,3.26,6.618,6.75v5.795
		c0,1.449,0.066,2.865,0.23,3.854H154.731z M154.205,136.588c-2.865-0.066-5.598,0.56-5.598,2.996c0,1.582,1.021,2.307,2.305,2.307
		c1.613,0,2.799-1.055,3.161-2.207c0.099-0.297,0.132-0.625,0.132-0.889V136.588z"/>
	<path fill="#FFFFFF" d="M162.602,121.045h4.084v23.38h-4.084V121.045z"/>
	<path fill="#FFFFFF" d="M174.093,137.543c0.099,2.898,2.371,4.148,4.939,4.148c1.877,0,3.227-0.262,4.445-0.723l0.593,2.799
		c-1.383,0.559-3.293,0.986-5.598,0.986c-5.203,0-8.266-3.193-8.266-8.1c0-4.445,2.7-8.627,7.837-8.627
		c5.203,0,6.915,4.281,6.915,7.804c0,0.757-0.065,1.35-0.132,1.712H174.093z M181.14,134.711c0.033-1.482-0.626-3.918-3.326-3.918
		c-2.502,0-3.556,2.272-3.721,3.918H181.14z"/>
	<path fill="#FFFFFF" d="M188.186,140.705c0.922,0.559,2.667,1.152,4.116,1.152c1.778,0,2.568-0.725,2.568-1.779
		c0-1.086-0.658-1.646-2.634-2.338c-3.129-1.086-4.446-2.798-4.413-4.675c0-2.832,2.338-5.038,6.059-5.038
		c1.778,0,3.326,0.461,4.248,0.955l-0.79,2.865c-0.691-0.395-1.976-0.922-3.392-0.922c-1.449,0-2.239,0.691-2.239,1.679
		c0,1.021,0.758,1.515,2.799,2.239c2.897,1.054,4.248,2.535,4.281,4.907c0,2.896-2.272,5.004-6.521,5.004
		c-1.942,0-3.688-0.461-4.873-1.119L188.186,140.705z"/>
	<path fill="#FFFFFF" d="M26.908,156.794c1.383-0.23,3.194-0.428,5.499-0.428c2.832,0,4.907,0.658,6.224,1.844
		c1.218,1.053,1.943,2.666,1.943,4.643c0,2.008-0.593,3.59-1.712,4.742c-1.515,1.613-3.984,2.436-6.783,2.436
		c-0.856,0-1.646-0.031-2.305-0.197v8.891h-2.865V156.794z M29.772,167.496c0.626,0.166,1.416,0.23,2.371,0.23
		c3.458,0,5.565-1.68,5.565-4.742c0-2.93-2.075-4.346-5.236-4.346c-1.251,0-2.206,0.1-2.7,0.23V167.496z"/>
	<path fill="#FFFFFF" d="M43.965,167.759c0-1.877-0.033-3.49-0.132-4.973h2.536l0.099,3.129h0.132c0.725-2.141,2.47-3.49,4.413-3.49
		c0.329,0,0.56,0.033,0.823,0.098v2.734c-0.296-0.066-0.593-0.1-0.988-0.1c-2.042,0-3.49,1.549-3.885,3.721
		c-0.066,0.396-0.132,0.857-0.132,1.352v8.494h-2.865V167.759z"/>
	<path fill="#FFFFFF" d="M58.255,158.308c0.033,0.988-0.691,1.779-1.844,1.779c-1.021,0-1.745-0.791-1.745-1.779
		c0-1.02,0.757-1.811,1.811-1.811C57.563,156.498,58.255,157.289,58.255,158.308z M55.028,178.724v-15.938h2.897v15.938H55.028z"/>
	<path fill="#FFFFFF" d="M63.194,178.724v-13.73h-2.239v-2.207h2.239v-0.756c0-2.24,0.494-4.281,1.844-5.566
		c1.087-1.053,2.536-1.48,3.886-1.48c1.021,0,1.91,0.23,2.47,0.461l-0.395,2.238c-0.428-0.197-1.021-0.361-1.844-0.361
		c-2.47,0-3.095,2.172-3.095,4.609v0.855h3.853v2.207h-3.853v13.73H63.194z"/>
	<path fill="#FFFFFF" d="M73.731,162.787l3.49,9.418c0.362,1.055,0.757,2.305,1.021,3.26h0.066c0.296-0.955,0.625-2.174,1.021-3.326
		l3.161-9.352h3.062l-4.347,11.361c-2.074,5.465-3.49,8.266-5.466,9.977c-1.416,1.252-2.832,1.746-3.557,1.877l-0.724-2.436
		c0.724-0.23,1.679-0.691,2.535-1.416c0.791-0.627,1.778-1.746,2.437-3.229c0.132-0.295,0.23-0.525,0.23-0.691
		c0-0.164-0.066-0.395-0.198-0.756l-5.894-14.688H73.731z"/>
	<path fill="#FFFFFF" d="M87.758,175.761c0.856,0.561,2.371,1.152,3.819,1.152c2.107,0,3.096-1.055,3.096-2.371
		c0-1.383-0.823-2.141-2.964-2.93c-2.865-1.021-4.215-2.602-4.215-4.512c0-2.568,2.075-4.676,5.499-4.676
		c1.614,0,3.03,0.461,3.918,0.988l-0.724,2.107c-0.626-0.396-1.778-0.922-3.26-0.922c-1.712,0-2.667,0.986-2.667,2.172
		c0,1.318,0.955,1.91,3.029,2.701c2.766,1.053,4.182,2.436,4.182,4.807c0,2.799-2.173,4.775-5.96,4.775
		c-1.746,0-3.359-0.428-4.479-1.088L87.758,175.761z"/>
	<path fill="#FFFFFF" d="M115.088,162.787c-0.066,1.152-0.131,2.438-0.131,4.381v9.252c0,3.654-0.725,5.895-2.272,7.277
		c-1.547,1.449-3.787,1.91-5.795,1.91c-1.91,0-4.017-0.461-5.301-1.318l0.725-2.205c1.054,0.658,2.7,1.252,4.676,1.252
		c2.963,0,5.137-1.549,5.137-5.566v-1.777h-0.066c-0.889,1.482-2.601,2.668-5.071,2.668c-3.952,0-6.783-3.359-6.783-7.771
		c0-5.4,3.523-8.463,7.178-8.463c2.766,0,4.281,1.449,4.972,2.766h0.066l0.132-2.404H115.088z M112.092,169.076
		c0-0.492-0.033-0.922-0.165-1.316c-0.527-1.68-1.942-3.062-4.05-3.062c-2.766,0-4.742,2.338-4.742,6.025
		c0,3.129,1.581,5.73,4.708,5.73c1.778,0,3.392-1.119,4.017-2.963c0.165-0.494,0.231-1.055,0.231-1.549V169.076z"/>
	<path fill="#FFFFFF" d="M134.351,170.625c0,5.895-4.083,8.463-7.936,8.463c-4.313,0-7.639-3.162-7.639-8.199
		c0-5.334,3.49-8.463,7.903-8.463C131.256,162.425,134.351,165.751,134.351,170.625z M121.707,170.789
		c0,3.49,2.008,6.125,4.84,6.125c2.766,0,4.841-2.602,4.841-6.191c0-2.699-1.351-6.123-4.775-6.123
		C123.188,164.599,121.707,167.759,121.707,170.789z"/>
	<path fill="#FFFFFF" d="M138.17,155.345h2.898v23.379h-2.898V155.345z"/>
	<path fill="#FFFFFF" d="M26.908,191.126c1.745-0.264,3.82-0.461,6.092-0.461c4.116,0,7.047,0.955,8.99,2.766
		c1.976,1.812,3.128,4.381,3.128,7.969c0,3.623-1.12,6.586-3.194,8.629c-2.075,2.074-5.499,3.193-9.813,3.193
		c-2.042,0-3.754-0.1-5.203-0.264V191.126z M29.772,210.751c0.725,0.133,1.778,0.166,2.898,0.166c6.125,0,9.45-3.426,9.45-9.418
		c0.033-5.236-2.931-8.561-8.989-8.561c-1.482,0-2.602,0.131-3.359,0.295V210.751z"/>
	<path fill="#FFFFFF" d="M50.648,205.583c0.066,3.918,2.568,5.531,5.466,5.531c2.075,0,3.326-0.363,4.413-0.824l0.494,2.076
		c-1.021,0.461-2.766,0.986-5.301,0.986c-4.906,0-7.837-3.227-7.837-8.033c0-4.809,2.832-8.596,7.475-8.596
		c5.203,0,6.585,4.578,6.585,7.508c0,0.594-0.065,1.055-0.099,1.352H50.648z M59.144,203.507c0.033-1.844-0.757-4.707-4.017-4.707
		c-2.931,0-4.215,2.699-4.445,4.707H59.144z"/>
	<path fill="#FFFFFF" d="M88.45,212.3c-1.054,0.527-3.161,1.053-5.861,1.053c-6.256,0-10.965-3.951-10.965-11.229
		c0-6.947,4.708-11.656,11.591-11.656c2.766,0,4.511,0.594,5.269,0.988l-0.691,2.338c-1.087-0.527-2.634-0.922-4.479-0.922
		c-5.203,0-8.66,3.326-8.66,9.154c0,5.434,3.128,8.924,8.528,8.924c1.746,0,3.523-0.363,4.676-0.922L88.45,212.3z"/>
	<path fill="#FFFFFF" d="M92.5,197.087l3.49,9.418c0.362,1.053,0.757,2.305,1.021,3.26h0.066c0.296-0.955,0.625-2.174,1.021-3.326
		l3.161-9.352h3.062l-4.347,11.359c-2.074,5.467-3.49,8.266-5.466,9.979c-1.416,1.25-2.832,1.744-3.557,1.877l-0.724-2.438
		c0.724-0.23,1.679-0.691,2.535-1.416c0.791-0.625,1.778-1.744,2.437-3.227c0.132-0.297,0.23-0.527,0.23-0.691
		s-0.066-0.395-0.198-0.758l-5.894-14.686H92.5z"/>
	<path fill="#FFFFFF" d="M107.119,201.4c0-1.646-0.033-2.996-0.132-4.312h2.536l0.132,2.568h0.099
		c0.889-1.516,2.371-2.932,5.005-2.932c2.173,0,3.82,1.318,4.511,3.195h0.066c0.494-0.889,1.12-1.582,1.778-2.074
		c0.955-0.725,2.009-1.121,3.523-1.121c2.107,0,5.236,1.383,5.236,6.916v9.385h-2.832v-9.023c0-3.062-1.12-4.906-3.458-4.906
		c-1.646,0-2.931,1.219-3.425,2.635c-0.132,0.395-0.23,0.922-0.23,1.449v9.846h-2.832v-9.549c0-2.537-1.12-4.381-3.326-4.381
		c-1.811,0-3.128,1.449-3.589,2.898c-0.165,0.428-0.23,0.922-0.23,1.416v9.615h-2.832V201.4z"/>
	<path fill="#FFFFFF" d="M134.746,202.06c0-1.877-0.032-3.492-0.131-4.973h2.535l0.099,3.127h0.132
		c0.725-2.139,2.47-3.49,4.412-3.49c0.329,0,0.56,0.033,0.823,0.1v2.732c-0.296-0.064-0.593-0.098-0.987-0.098
		c-2.042,0-3.491,1.547-3.886,3.721c-0.066,0.395-0.132,0.855-0.132,1.35v8.496h-2.865V202.06z"/>
	<path fill="#FFFFFF" d="M159.015,208.677c0,1.646,0.032,3.096,0.131,4.348h-2.568l-0.164-2.602h-0.066
		c-0.757,1.283-2.437,2.963-5.269,2.963c-2.502,0-5.499-1.383-5.499-6.98v-9.318h2.898v8.824c0,3.029,0.922,5.07,3.556,5.07
		c1.943,0,3.293-1.35,3.82-2.633c0.164-0.428,0.263-0.955,0.263-1.482v-9.779h2.898V208.677z"/>
</g>
</svg>
