<?xml version="1.0" encoding="utf-8"?>
<!-- Generator: Adobe Illustrator 16.0.0, SVG Export Plug-In . SVG Version: 6.00 Build 0)  -->
<!DOCTYPE svg PUBLIC "-//W3C//DTD SVG 1.1//EN" "http://www.w3.org/Graphics/SVG/1.1/DTD/svg11.dtd">
<svg version="1.1" id="outlined" xmlns="http://www.w3.org/2000/svg" xmlns:xlink="http://www.w3.org/1999/xlink" x="0px" y="0px"
	 width="238.481px" height="245.242px" viewBox="0 0 238.481 245.242" enable-background="new 0 0 238.481 245.242"
	 xml:space="preserve">
<path fill="#C3002F" d="M0,0v245.242h152.311c47.592,0,86.171-38.58,86.171-86.172V0H0z"/>
<g>
	<path fill="#FFFFFF" d="M31.284,137.605v38.055c0,12.782,5.326,18.688,13.363,18.688c8.618,0,13.75-5.906,13.75-18.688v-38.055
		h11.91v37.28c0,20.142-10.361,29.05-26.048,29.05c-15.105,0-24.886-8.425-24.886-28.952v-37.378H31.284z"/>
	<path fill="#FFFFFF" d="M83.671,189.895c3.873,2.227,9.683,4.163,15.783,4.163c7.649,0,11.91-3.583,11.91-8.908
		c0-4.938-3.292-7.844-11.619-10.846c-10.749-3.873-17.624-9.586-17.624-18.979c0-10.651,8.909-18.786,23.046-18.786
		c7.069,0,12.298,1.549,15.687,3.292l-2.905,9.587c-2.324-1.259-6.875-3.099-12.976-3.099c-7.553,0-10.845,4.067-10.845,7.844
		c0,5.035,3.776,7.359,12.491,10.748c11.329,4.261,16.848,9.974,16.848,19.366c0,10.458-7.94,19.561-24.789,19.561
		c-6.875,0-14.041-1.938-17.624-4.066L83.671,189.895z"/>
	<path fill="#FFFFFF" d="M144.772,202.87l-15.977-65.265h12.685l6.197,29.631c1.646,7.94,3.195,16.268,4.261,22.756h0.193
		c1.065-6.876,2.905-14.622,4.745-22.853l7.069-29.534h12.491l6.487,30.019c1.646,7.746,3.001,15.009,3.97,22.077h0.193
		c1.162-7.165,2.711-14.621,4.455-22.562l6.777-29.534h12.104l-17.526,65.265h-12.781l-6.779-30.695
		c-1.646-7.456-2.808-13.653-3.583-20.722h-0.193c-1.162,6.972-2.421,13.266-4.356,20.722l-7.554,30.695H144.772z"/>
</g>
</svg>
